<?xml version="1.0" encoding="utf-8"?><svg xmlns="http://www.w3.org/2000/svg" xmlns:xlink="http://www.w3.org/1999/xlink"><symbol viewBox="0 0 24 24" id="alert" xmlns="http://www.w3.org/2000/svg"><path d="M12 22c5.523 0 10-4.477 10-10S17.523 2 12 2 2 6.477 2 12s4.477 10 10 10zM12 8v4M12 16h.01"/></symbol><symbol viewBox="0 0 12 21" id="arrow-left" xmlns="http://www.w3.org/2000/svg"><path d="M2 2l8 8.5L2 19"/></symbol><symbol viewBox="0 0 24 24" id="check" xmlns="http://www.w3.org/2000/svg"><path d="M20 6L9 17l-5-5"/></symbol><symbol viewBox="0 0 24 24" id="circle" xmlns="http://www.w3.org/2000/svg"><path d="M4 12c-.03-2.198.749-4.093 2.338-5.683 1.587-1.59 3.468-2.362 5.64-2.315 2.172-.047 4.06.725 5.661 2.315C19.243 7.907 20.03 9.802 20 12c.031 2.198-.756 4.093-2.36 5.683-1.603 1.59-3.49 2.362-5.662 2.315-2.173.047-4.052-.725-5.64-2.315C4.75 16.093 3.97 14.198 4.002 12zm12.831 0c0-1.465-.46-2.677-1.38-3.638-.92-.958-2.07-1.437-3.451-1.437-1.398 0-2.552.476-3.464 1.427-.912.95-1.367 2.166-1.367 3.648 0 1.482.455 2.698 1.367 3.648.912.95 2.066 1.427 3.464 1.427 1.382 0 2.534-.476 3.452-1.427.92-.95 1.38-2.166 1.38-3.648z"/></symbol><symbol viewBox="0 0 20 20" id="close" xmlns="http://www.w3.org/2000/svg"><path d="M5.482 4.313a.827.827 0 00-1.17 1.17L8.83 10l-4.518 4.518a.827.827 0 001.17 1.169L10 11.169l4.517 4.518a.827.827 0 001.17-1.17L11.169 10l4.518-4.518a.827.827 0 10-1.17-1.169L10 8.831 5.482 4.313z"/></symbol><symbol viewBox="0 0 10 11" id="cross" xmlns="http://www.w3.org/2000/svg"><path d="M9.3.901L.433 9.768m0-8.867L9.3 9.768"/></symbol><symbol viewBox="0 0 25 24" id="link" xmlns="http://www.w3.org/2000/svg"><path d="M6.5 18L17.54 6.96M18.5 18V6h-12"/></symbol><symbol viewBox="0 0 20 12" id="menu" xmlns="http://www.w3.org/2000/svg"><path d="M0 0h20v2H0zM0 5h20v2H0zM0 10h20v2H0z"/></symbol><symbol viewBox="0 0 24 24" id="menu-square" xmlns="http://www.w3.org/2000/svg"><path d="M10 3H3v7h7V3zM21 3h-7v7h7V3zM21 14h-7v7h7v-7zM10 14H3v7h7v-7z"/></symbol><symbol viewBox="0 0 24 24" id="phone" xmlns="http://www.w3.org/2000/svg"><path d="M22 16.92v3a2 2 0 01-2.18 2 19.79 19.79 0 01-8.63-3.07 19.502 19.502 0 01-6-6 19.79 19.79 0 01-3.07-8.67A2 2 0 014.11 2h3a2 2 0 012 1.72c.127.96.361 1.903.7 2.81a2 2 0 01-.45 2.11L8.09 9.91a16 16 0 006 6l1.27-1.27a2 2 0 012.11-.45c.907.338 1.85.573 2.81.7A2 2 0 0122 16.92z"/></symbol><symbol viewBox="0 0 64 64" id="quote" xmlns="http://www.w3.org/2000/svg"><path d="M48.856 26.376c-.127-1.357-.03-5.047 3.538-10.177a.966.966 0 00-.114-1.242c-1.455-1.44-2.355-2.35-2.987-2.986-.83-.839-1.21-1.221-1.765-1.72a.992.992 0 00-1.306-.012c-6.218 5.36-13.124 16.438-12.125 30.008C34.683 48.217 40.55 54 48.047 54 55.74 54 62 47.8 62 40.177c0-7.353-5.825-13.383-13.144-13.801zm-.81 25.676c-6.438 0-11.479-5.024-11.989-11.945v-.001c-1.124-15.263 8.034-25.177 10.801-27.802.27.263.578.573 1.032 1.032.547.551 1.296 1.307 2.43 2.433-4.332 6.61-3.515 11.32-3.157 11.996.17.32.519.536.884.536 6.61 0 11.987 5.327 11.987 11.876 0 6.548-5.377 11.875-11.987 11.875zM16.857 26.376c-.128-1.354-.034-5.04 3.537-10.177a.968.968 0 00-.114-1.242c-1.452-1.438-2.351-2.346-2.982-2.982-.833-.841-1.213-1.225-1.768-1.724a.994.994 0 00-1.305-.013C8.007 15.598 1.1 26.674 2.097 40.248 2.685 48.216 8.552 54 16.048 54c7.694 0 13.953-6.2 13.953-13.823 0-7.354-5.826-13.386-13.144-13.801zm-.809 25.676c-6.436 0-11.48-5.024-11.99-11.946C2.936 24.84 12.093 14.929 14.86 12.305c.27.263.58.575 1.035 1.034.546.552 1.294 1.306 2.425 2.43-4.33 6.612-3.514 11.321-3.156 11.995.17.321.52.538.884.538 6.61 0 11.987 5.327 11.987 11.876 0 6.548-5.377 11.875-11.987 11.875z"/></symbol></svg>