<svg width="206" height="56" viewBox="0 0 206 56" fill="none" xmlns="http://www.w3.org/2000/svg">
<path d="M24.2113 26.796L16.4916 17.3762L30.6352 0H21.6347L7.54698 17.0968V0H0V36.8864H7.54698V17.6557L20.7097 33.65C21.1875 31.1045 22.4529 28.6708 24.2113 26.796Z" fill="#10323E"/>
<path d="M16.7711 36.8814C16.6949 31.6278 18.6058 27.1009 22.5038 23.3004C26.3967 19.5 31.0113 17.6557 36.3374 17.7675C41.6685 17.6557 46.2984 19.5 50.2269 23.3004C54.1604 27.1009 56.0866 31.6278 56.0154 36.8814C56.0916 42.1349 54.1604 46.6618 50.2269 50.4623C46.2933 54.2627 41.6634 56.107 36.3374 55.9952C31.0062 56.107 26.3967 54.2627 22.5038 50.4623C18.6058 46.6618 16.6949 42.1349 16.7711 36.8814ZM48.2448 36.8814C48.2448 33.3807 47.1166 30.4847 44.8601 28.1882C42.6036 25.8967 39.7831 24.7536 36.3933 24.7536C32.9628 24.7536 30.1321 25.8916 27.8959 28.1628C25.6598 30.4339 24.5417 33.3401 24.5417 36.8814C24.5417 40.4227 25.6598 43.3289 27.8959 45.6C30.1321 47.8711 32.9628 49.0092 36.3933 49.0092C39.7831 49.0092 42.6087 47.8711 44.8601 45.6C47.1166 43.3289 48.2448 40.4227 48.2448 36.8814Z" fill="#FF2727"/>
<path d="M83.3623 21.9966H80.4412L75.3714 15.8232V21.9966H72.9567V10.1523H75.3714V15.6438L79.8836 10.1523H82.7638L78.2362 15.7361L83.3623 21.9966Z" fill="#10323E"/>
<path d="M83.3828 16.0746C83.3573 14.3877 83.9712 12.9315 85.2194 11.7112C86.4677 10.4908 87.9462 9.9012 89.6498 9.93709C91.3585 9.9012 92.8421 10.4908 94.1006 11.7112C95.3591 12.9315 95.9781 14.3877 95.9525 16.0746C95.9781 17.7615 95.3591 19.2176 94.1006 20.4328C92.8421 21.648 91.3585 22.2479 89.6498 22.2069C87.9411 22.2428 86.4677 21.6531 85.2194 20.4328C83.9712 19.2176 83.3573 17.7615 83.3828 16.0746ZM93.4611 16.0746C93.4611 14.9517 93.0979 14.0185 92.3765 13.2853C91.6552 12.5469 90.7497 12.1829 89.6651 12.1829C88.5652 12.1829 87.6597 12.5469 86.9435 13.2801C86.2273 14.0134 85.8692 14.9414 85.8692 16.0797C85.8692 17.218 86.2273 18.1511 86.9435 18.8792C87.6597 19.6073 88.5652 19.9714 89.6651 19.9714C90.7497 19.9714 91.6552 19.6073 92.3765 18.8792C93.103 18.146 93.4611 17.2128 93.4611 16.0746Z" fill="#10323E"/>
<path d="M108.773 9.93701H109.561V21.9966H107.146V15.6797L104.174 19.4124H103.386L100.413 15.6797V21.9966H97.9988V9.93701H98.7866L103.78 16.3462L108.773 9.93701Z" fill="#10323E"/>
<path d="M112.282 21.9966V10.1523H122.166V21.9966H119.746V12.3417H114.697V21.9966H112.282Z" fill="#10323E"/>
<path d="M126.049 10.1523H134.163V21.9966H131.743V12.3417H128.341C128.295 14.8644 128.121 16.8487 127.829 18.2792C127.538 19.7149 127.134 20.7147 126.612 21.2839C126.095 21.853 125.399 22.1504 124.525 22.1709C124.167 22.1709 123.824 22.1094 123.501 21.9915V19.9302C123.599 19.9559 123.757 19.9661 123.987 19.9661C124.704 19.9661 125.215 19.3765 125.517 18.1921C125.819 17.0076 125.993 15.0592 126.029 12.3417L126.049 10.1523Z" fill="#10323E"/>
<path d="M136.885 21.9966V10.1523H144.835V12.3417H139.299V14.7465H143.366V16.8077H139.299V19.8072H145.049V21.9966H136.885Z" fill="#10323E"/>
<path d="M157.548 21.9966H154.626L149.557 15.8232V21.9966H147.142V10.1523H149.557V15.6438L154.069 10.1523H156.949L152.421 15.7361L157.548 21.9966Z" fill="#10323E"/>
<path d="M157.563 16.0746C157.537 14.3774 158.156 12.9212 159.405 11.706C160.658 10.4908 162.147 9.9012 163.866 9.93709C164.986 9.93709 166.004 10.1986 166.92 10.7165C167.836 11.2343 168.552 11.9573 169.079 12.8802L167.252 14.1723C166.403 12.8443 165.278 12.1778 163.871 12.1778C162.771 12.1778 161.86 12.5469 161.139 13.2904C160.418 14.0339 160.054 14.967 160.054 16.0899C160.054 17.2128 160.418 18.1409 161.139 18.8741C161.86 19.6022 162.771 19.9662 163.871 19.9662C165.278 19.9662 166.408 19.3048 167.252 17.9768L169.079 19.2689C168.567 20.1918 167.851 20.9097 166.93 21.4327C166.009 21.9557 164.986 22.212 163.85 22.212C162.121 22.2479 160.633 21.6583 159.384 20.4431C158.136 19.233 157.527 17.7768 157.563 16.0746Z" fill="#10323E"/>
<path d="M171.135 21.9966V10.1523H173.55V14.6901H178.778V10.1523H181.193V21.9966H178.778V16.8795H173.55V21.9966H171.135Z" fill="#10323E"/>
<path d="M183.224 16.0746C183.199 14.3877 183.812 12.9315 185.061 11.7112C186.309 10.4908 187.788 9.9012 189.491 9.93709C191.2 9.9012 192.683 10.4908 193.942 11.7112C195.2 12.9315 195.819 14.3877 195.794 16.0746C195.819 17.7615 195.2 19.2176 193.942 20.4328C192.683 21.648 191.2 22.2479 189.491 22.2069C187.782 22.2428 186.309 21.6531 185.061 20.4328C183.812 19.2176 183.199 17.7615 183.224 16.0746ZM193.302 16.0746C193.302 14.9517 192.939 14.0185 192.218 13.2853C191.497 12.5469 190.591 12.1829 189.506 12.1829C188.407 12.1829 187.501 12.5469 186.785 13.2801C186.069 14.0134 185.71 14.9414 185.71 16.0797C185.71 17.218 186.069 18.1511 186.785 18.8792C187.501 19.6073 188.407 19.9714 189.506 19.9714C190.591 19.9714 191.497 19.6073 192.218 18.8792C192.944 18.146 193.302 17.2128 193.302 16.0746Z" fill="#10323E"/>
<path d="M197.835 21.9966V10.1523H205.785V12.3417H200.25V14.7465H204.317V16.8077H200.25V19.8072H206V21.9966H197.835Z" fill="#10323E"/>
<path d="M72.2814 37.6092C72.2558 35.9223 72.8697 34.4661 74.118 33.2458C75.3663 32.0255 76.8448 31.4359 78.5483 31.4718C80.257 31.4359 81.7406 32.0255 82.9991 33.2458C84.2577 34.4661 84.8767 35.9223 84.8511 37.6092C84.8767 39.2961 84.2577 40.7523 82.9991 41.9675C81.7406 43.1827 80.257 43.7826 78.5483 43.7416C76.8396 43.7775 75.3663 43.1878 74.118 41.9675C72.8697 40.7523 72.2558 39.2961 72.2814 37.6092ZM82.3597 37.6092C82.3597 36.4863 81.9964 35.5531 81.2751 34.8199C80.5538 34.0816 79.6483 33.7176 78.5637 33.7176C77.4638 33.7176 76.5583 34.0816 75.8421 34.8148C75.1258 35.548 74.7677 36.4761 74.7677 37.6144C74.7677 38.7526 75.1258 39.6858 75.8421 40.4139C76.5583 41.142 77.4638 41.506 78.5637 41.506C79.6483 41.506 80.5538 41.142 81.2751 40.4139C82.0016 39.6807 82.3597 38.7475 82.3597 37.6092Z" fill="#10323E"/>
<path d="M86.212 37.6097C86.1864 35.9126 86.8054 34.4564 88.0537 33.2412C89.3071 32.026 90.7958 31.4364 92.5147 31.4722C93.6351 31.4722 94.6531 31.7337 95.5689 32.2516C96.4846 32.7746 97.2008 33.4924 97.7278 34.4154L95.9014 35.7075C95.0522 34.3795 93.9267 33.7129 92.5198 33.7129C91.4199 33.7129 90.5093 34.0821 89.7879 34.8256C89.0666 35.569 88.7034 36.5022 88.7034 37.6251C88.7034 38.748 89.0666 39.676 89.7879 40.4093C90.5093 41.1374 91.4199 41.5014 92.5198 41.5014C93.9267 41.5014 95.0573 40.84 95.9014 39.512L97.7278 40.8041C97.2162 41.727 96.5 42.4448 95.5791 42.9678C94.6582 43.4908 93.6351 43.7472 92.4994 43.7472C90.7702 43.7831 89.2815 43.1934 88.0332 41.9782C86.7798 40.7682 86.1761 39.312 86.212 37.6097Z" fill="#10323E"/>
<path d="M99.7843 43.5317V31.6875H102.199V36.2252H107.427V31.6875H109.842V43.5317H107.427V38.4146H102.199V43.5317H99.7843Z" fill="#10323E"/>
<path d="M120.176 43.5313L119.516 41.9879H114.682L114.022 43.5313H111.423L116.708 31.4717H117.516L122.78 43.5313H120.176ZM118.672 39.9985L117.096 35.994L115.521 39.9985H118.672Z" fill="#10323E"/>
<path d="M138.655 46.0647V43.5317H124.386V31.6875H126.801V41.3423H130.689V31.6875H133.104V41.3423H136.987V31.6875H139.407V41.3423H140.962V46.0647H138.655Z" fill="#10323E"/>
<path d="M142.758 43.5317V31.6875H150.708V33.8769H145.172V36.2816H149.24V38.3428H145.172V41.3423H150.923V43.5317H142.758Z" fill="#10323E"/>
<path d="M153.015 43.5317V31.6875H155.43V36.2252H160.658V31.6875H163.073V43.5317H160.658V38.4146H155.435V43.5317H153.015Z" fill="#10323E"/>
<path d="M175.11 31.4717H175.919V43.5313H173.504V36.194L166.577 43.7466H165.789V31.687H168.204V38.9576L175.11 31.4717Z" fill="#10323E"/>
<path d="M178.62 43.5317V31.6875H186.57V33.8769H181.035V36.2816H185.102V38.3428H181.035V41.3423H186.785V43.5317H178.62Z" fill="#10323E"/>
</svg>
