<svg width="206" height="56" viewBox="0 0 206 56" fill="none" xmlns="http://www.w3.org/2000/svg">
<path d="M24.2113 26.796L16.4916 17.3762L30.6352 0H21.6347L7.54698 17.0968V0H0V36.8864H7.54698V17.6557L20.7097 33.65C21.1875 31.1045 22.4529 28.6708 24.2113 26.796Z" fill="#FEFEFE"/>
<path d="M16.7712 36.8814C16.695 31.6278 18.6059 27.1009 22.5039 23.3004C26.3968 19.5 31.0114 17.6557 36.3375 17.7675C41.6686 17.6557 46.2985 19.5 50.227 23.3004C54.1606 27.1009 56.0867 31.6278 56.0155 36.8814C56.0918 42.1349 54.1606 46.6618 50.227 50.4623C46.2934 54.2627 41.6636 56.107 36.3375 55.9952C31.0063 56.107 26.3968 54.2627 22.5039 50.4623C18.6059 46.6618 16.695 42.1349 16.7712 36.8814ZM48.2449 36.8814C48.2449 33.3807 47.1167 30.4847 44.8602 28.1882C42.6038 25.8967 39.7832 24.7536 36.3934 24.7536C32.9629 24.7536 30.1322 25.8916 27.896 28.1628C25.6599 30.4339 24.5418 33.3401 24.5418 36.8814C24.5418 40.4227 25.6599 43.3289 27.896 45.6C30.1322 47.8711 32.9629 49.0092 36.3934 49.0092C39.7832 49.0092 42.6088 47.8711 44.8602 45.6C47.1167 43.3289 48.2449 40.4227 48.2449 36.8814Z" fill="#FF2727"/>
<path d="M83.3625 21.9966H80.4413L75.3715 15.8232V21.9966H72.9568V10.1523H75.3715V15.6438L79.8837 10.1523H82.7639L78.2364 15.7361L83.3625 21.9966Z" fill="#FEFEFE"/>
<path d="M83.3828 16.0746C83.3573 14.3877 83.9712 12.9315 85.2194 11.7112C86.4677 10.4908 87.9462 9.9012 89.6498 9.93709C91.3585 9.9012 92.8421 10.4908 94.1006 11.7112C95.3591 12.9315 95.9781 14.3877 95.9525 16.0746C95.9781 17.7615 95.3591 19.2176 94.1006 20.4328C92.8421 21.648 91.3585 22.2479 89.6498 22.2069C87.9411 22.2428 86.4677 21.6531 85.2194 20.4328C83.9712 19.2176 83.3573 17.7615 83.3828 16.0746ZM93.4611 16.0746C93.4611 14.9517 93.0979 14.0185 92.3765 13.2853C91.6552 12.5469 90.7497 12.1829 89.6651 12.1829C88.5652 12.1829 87.6597 12.5469 86.9435 13.2801C86.2273 14.0134 85.8692 14.9414 85.8692 16.0797C85.8692 17.218 86.2273 18.1511 86.9435 18.8792C87.6597 19.6073 88.5652 19.9714 89.6651 19.9714C90.7497 19.9714 91.6552 19.6073 92.3765 18.8792C93.103 18.146 93.4611 17.2128 93.4611 16.0746Z" fill="#FEFEFE"/>
<path d="M108.773 9.93701H109.561V21.9966H107.146V15.6797L104.174 19.4124H103.386L100.414 15.6797V21.9966H97.999V9.93701H98.7869L103.78 16.3462L108.773 9.93701Z" fill="#FEFEFE"/>
<path d="M112.282 21.9966V10.1523H122.166V21.9966H119.747V12.3417H114.697V21.9966H112.282Z" fill="#FEFEFE"/>
<path d="M126.049 10.1523H134.163V21.9966H131.743V12.3417H128.341C128.295 14.8644 128.121 16.8487 127.829 18.2792C127.538 19.7149 127.134 20.7147 126.612 21.2839C126.095 21.853 125.399 22.1504 124.525 22.1709C124.167 22.1709 123.824 22.1094 123.501 21.9915V19.9302C123.599 19.9559 123.757 19.9661 123.987 19.9661C124.704 19.9661 125.215 19.3765 125.517 18.1921C125.819 17.0076 125.993 15.0592 126.029 12.3417L126.049 10.1523Z" fill="#FEFEFE"/>
<path d="M136.885 21.9966V10.1523H144.835V12.3417H139.299V14.7465H143.367V16.8077H139.299V19.8072H145.05V21.9966H136.885Z" fill="#FEFEFE"/>
<path d="M157.548 21.9966H154.627L149.557 15.8232V21.9966H147.142V10.1523H149.557V15.6438L154.069 10.1523H156.949L152.422 15.7361L157.548 21.9966Z" fill="#FEFEFE"/>
<path d="M157.563 16.0746C157.538 14.3774 158.157 12.9212 159.405 11.706C160.658 10.4908 162.147 9.9012 163.866 9.93709C164.986 9.93709 166.004 10.1986 166.92 10.7165C167.836 11.2343 168.552 11.9573 169.079 12.8802L167.253 14.1723C166.403 12.8443 165.278 12.1778 163.871 12.1778C162.771 12.1778 161.861 12.5469 161.139 13.2904C160.418 14.0339 160.055 14.967 160.055 16.0899C160.055 17.2128 160.418 18.1409 161.139 18.8741C161.861 19.6022 162.771 19.9662 163.871 19.9662C165.278 19.9662 166.409 19.3048 167.253 17.9768L169.079 19.2689C168.567 20.1918 167.851 20.9097 166.93 21.4327C166.01 21.9557 164.986 22.212 163.851 22.212C162.122 22.2479 160.633 21.6583 159.385 20.4431C158.136 19.233 157.527 17.7768 157.563 16.0746Z" fill="#FEFEFE"/>
<path d="M171.135 21.9966V10.1523H173.55V14.6901H178.779V10.1523H181.193V21.9966H178.779V16.8795H173.55V21.9966H171.135Z" fill="#FEFEFE"/>
<path d="M183.224 16.0746C183.199 14.3877 183.813 12.9315 185.061 11.7112C186.309 10.4908 187.788 9.9012 189.491 9.93709C191.2 9.9012 192.684 10.4908 193.942 11.7112C195.201 12.9315 195.82 14.3877 195.794 16.0746C195.82 17.7615 195.201 19.2176 193.942 20.4328C192.684 21.648 191.2 22.2479 189.491 22.2069C187.783 22.2428 186.309 21.6531 185.061 20.4328C183.813 19.2176 183.199 17.7615 183.224 16.0746ZM193.303 16.0746C193.303 14.9517 192.939 14.0185 192.218 13.2853C191.497 12.5469 190.591 12.1829 189.507 12.1829C188.407 12.1829 187.501 12.5469 186.785 13.2801C186.069 14.0134 185.711 14.9414 185.711 16.0797C185.711 17.218 186.069 18.1511 186.785 18.8792C187.501 19.6073 188.407 19.9714 189.507 19.9714C190.591 19.9714 191.497 19.6073 192.218 18.8792C192.945 18.146 193.303 17.2128 193.303 16.0746Z" fill="#FEFEFE"/>
<path d="M197.835 21.9966V10.1523H205.785V12.3417H200.25V14.7465H204.317V16.8077H200.25V19.8072H206V21.9966H197.835Z" fill="#FEFEFE"/>
<path d="M72.2815 37.6092C72.2559 35.9223 72.8699 34.4661 74.1181 33.2458C75.3664 32.0255 76.8449 31.4359 78.5485 31.4718C80.2572 31.4359 81.7408 32.0255 82.9993 33.2458C84.2578 34.4661 84.8768 35.9223 84.8512 37.6092C84.8768 39.2961 84.2578 40.7523 82.9993 41.9675C81.7408 43.1827 80.2572 43.7826 78.5485 43.7416C76.8398 43.7775 75.3664 43.1878 74.1181 41.9675C72.8699 40.7523 72.2559 39.2961 72.2815 37.6092ZM82.3598 37.6092C82.3598 36.4863 81.9966 35.5531 81.2752 34.8199C80.5539 34.0816 79.6484 33.7176 78.5638 33.7176C77.4639 33.7176 76.5584 34.0816 75.8422 34.8148C75.126 35.548 74.7678 36.4761 74.7678 37.6144C74.7678 38.7526 75.126 39.6858 75.8422 40.4139C76.5584 41.142 77.4639 41.506 78.5638 41.506C79.6484 41.506 80.5539 41.142 81.2752 40.4139C82.0017 39.6807 82.3598 38.7475 82.3598 37.6092Z" fill="#FEFEFE"/>
<path d="M86.2122 37.6097C86.1866 35.9126 86.8056 34.4564 88.0539 33.2412C89.3073 32.026 90.796 31.4364 92.5149 31.4722C93.6353 31.4722 94.6534 31.7337 95.5691 32.2516C96.4849 32.7746 97.2011 33.4924 97.728 34.4154L95.9017 35.7075C95.0524 34.3795 93.9269 33.7129 92.5201 33.7129C91.4202 33.7129 90.5095 34.0821 89.7882 34.8256C89.0669 35.569 88.7036 36.5022 88.7036 37.6251C88.7036 38.748 89.0669 39.676 89.7882 40.4093C90.5095 41.1374 91.4202 41.5014 92.5201 41.5014C93.9269 41.5014 95.0575 40.84 95.9017 39.512L97.728 40.8041C97.2164 41.727 96.5002 42.4448 95.5793 42.9678C94.6585 43.4908 93.6353 43.7472 92.4996 43.7472C90.7704 43.7831 89.2817 43.1934 88.0334 41.9782C86.7801 40.7682 86.1764 39.312 86.2122 37.6097Z" fill="#FEFEFE"/>
<path d="M99.7844 43.5317V31.6875H102.199V36.2252H107.428V31.6875H109.842V43.5317H107.428V38.4146H102.199V43.5317H99.7844Z" fill="#FEFEFE"/>
<path d="M120.176 43.5313L119.516 41.9879H114.682L114.022 43.5313H111.423L116.708 31.4717H117.516L122.78 43.5313H120.176ZM118.672 39.9985L117.096 35.994L115.521 39.9985H118.672Z" fill="#FEFEFE"/>
<path d="M138.655 46.0647V43.5317H124.387V31.6875H126.801V41.3423H130.689V31.6875H133.104V41.3423H136.987V31.6875H139.407V41.3423H140.962V46.0647H138.655Z" fill="#FEFEFE"/>
<path d="M142.758 43.5317V31.6875H150.708V33.8769H145.173V36.2816H149.24V38.3428H145.173V41.3423H150.923V43.5317H142.758Z" fill="#FEFEFE"/>
<path d="M153.015 43.5317V31.6875H155.43V36.2252H160.658V31.6875H163.073V43.5317H160.658V38.4146H155.435V43.5317H153.015Z" fill="#FEFEFE"/>
<path d="M175.11 31.4717H175.919V43.5313H173.504V36.194L166.577 43.7466H165.789V31.687H168.204V38.9576L175.11 31.4717Z" fill="#FEFEFE"/>
<path d="M178.62 43.5317V31.6875H186.57V33.8769H181.035V36.2816H185.102V38.3428H181.035V41.3423H186.785V43.5317H178.62Z" fill="#FEFEFE"/>
</svg>
