<svg width="20" height="20" viewBox="0 0 20 20" fill="none" xmlns="http://www.w3.org/2000/svg">
<path d="M5.4819 4.31299C5.15898 3.99007 4.63542 3.99007 4.3125 4.31299C3.98958 4.63591 3.98958 5.15947 4.3125 5.48239L8.83012 10L4.3125 14.5176C3.98958 14.8405 3.98958 15.3641 4.3125 15.687C4.63542 16.0099 5.15898 16.0099 5.4819 15.687L9.99952 11.1694L14.5171 15.687C14.8401 16.0099 15.3636 16.0099 15.6865 15.687C16.0095 15.3641 16.0095 14.8405 15.6865 14.5176L11.1689 10L15.6865 5.48239C16.0095 5.15947 16.0095 4.63591 15.6865 4.31299C15.3636 3.99007 14.8401 3.99007 14.5171 4.31299L9.99952 8.83061L5.4819 4.31299Z" fill="white"/>
</svg>
