<svg width="80" height="80" viewBox="0 0 80 80" fill="none" xmlns="http://www.w3.org/2000/svg">
<path d="M73 12.5C73 16.5053 72.1464 20.4714 70.488 24.1718C68.8296 27.8723 66.3989 31.2346 63.3345 34.0668C60.2702 36.8989 56.6323 39.1456 52.6286 40.6783C48.6248 42.2111 44.3336 43 40 43C35.6664 43 31.3752 42.2111 27.3714 40.6783C23.3677 39.1456 19.7298 36.8989 16.6655 34.0668C13.6011 31.2346 11.1704 27.8723 9.51197 24.1718C7.85357 20.4714 7 16.5053 7 12.5L40 12.5H73Z" fill="#FF2727"/>
<rect x="9" y="43" width="62" height="26" rx="2" fill="#10323E"/>
</svg>
