<svg width="80" height="80" viewBox="0 0 80 80" fill="none" xmlns="http://www.w3.org/2000/svg">
<circle cx="40" cy="40" r="23" fill="#10323E"/>
<path d="M3 61C8.56955 61 13.911 58.7875 17.8492 54.8492C21.7875 50.911 24 45.5695 24 40C24 34.4305 21.7875 29.089 17.8492 25.1508C13.911 21.2125 8.56955 19 3 19L3 40V61Z" fill="#FF2727"/>
<path d="M77 61C71.4305 61 66.089 58.7875 62.1508 54.8492C58.2125 50.911 56 45.5695 56 40C56 34.4305 58.2125 29.089 62.1508 25.1508C66.089 21.2125 71.4305 19 77 19V40V61Z" fill="#FF2727"/>
</svg>
