<svg width="24" height="24" viewBox="0 0 24 24" fill="none" xmlns="http://www.w3.org/2000/svg">
<path d="M4.00089 12C3.96982 9.80172 4.7488 7.90746 6.33785 6.31721C7.92483 4.72697 9.806 3.95523 11.9772 4.002C14.1505 3.95523 16.0379 4.72697 17.6394 6.31721C19.2429 7.90746 20.0281 9.80172 19.9991 12C20.0302 14.1983 19.2429 16.0925 17.6394 17.6828C16.0358 19.273 14.1484 20.0448 11.9772 19.998C9.80393 20.0448 7.92483 19.273 6.33785 17.6828C4.7488 16.0925 3.96982 14.1983 4.00089 12ZM16.8314 12C16.8314 10.5352 16.3714 9.32337 15.4516 8.36242C14.5317 7.4036 13.3819 6.92525 12 6.92525C10.6016 6.92525 9.44758 7.40147 8.536 8.35179C7.62442 9.30211 7.16863 10.5182 7.16863 12C7.16863 13.4818 7.62442 14.6979 8.536 15.6482C9.44758 16.5985 10.6016 17.0748 12 17.0748C13.3819 17.0748 14.5338 16.5985 15.4516 15.6482C16.3714 14.6979 16.8314 13.4818 16.8314 12Z" fill="#FF2727"/>
</svg>
