<svg width="64" height="64" viewBox="0 0 64 64" fill="none" xmlns="http://www.w3.org/2000/svg">
<path d="M48.8559 26.376C48.7292 25.0187 48.8261 21.3293 52.3937 16.1988C52.6636 15.8116 52.6146 15.2895 52.2795 14.9575C50.825 13.5166 49.9245 12.6073 49.2928 11.971C48.4623 11.132 48.0831 10.7497 47.5282 10.2512C47.1576 9.92124 46.597 9.91549 46.2225 10.2389C40.0043 15.5996 33.0976 26.6765 34.097 40.2474C34.6827 48.2161 40.5496 54 48.0467 54C55.7404 54 62 47.7995 62 40.177C62 32.8238 56.1745 26.7935 48.8559 26.376ZM48.0467 52.0521C41.6085 52.0521 36.5673 47.0281 36.0575 40.1067C36.0575 40.1067 36.0575 40.1067 36.0575 40.1057C34.9333 24.8428 44.0912 14.929 46.8581 12.3039C47.1279 12.5673 47.4361 12.8773 47.8901 13.3358C48.4373 13.8874 49.1863 14.6427 50.3191 15.7689C45.9883 22.3793 46.8053 27.0893 47.1633 27.7647C47.3333 28.0852 47.6818 28.3011 48.0467 28.3011C54.6566 28.3011 60.0338 33.6284 60.0338 40.177C60.0338 46.7247 54.6566 52.0521 48.0467 52.0521Z" fill="#FEFEFE"/>
<path d="M16.8568 26.3758C16.7291 25.0224 16.8232 21.3357 20.3942 16.1986C20.6631 15.8114 20.615 15.2893 20.28 14.9573C18.8285 13.5192 17.9291 12.6108 17.2984 11.9745C16.4652 11.1337 16.0849 10.7503 15.5301 10.251C15.1595 9.921 14.5989 9.91622 14.2246 10.2377C8.00691 15.5984 1.09994 26.6736 2.09729 40.2474V40.2483C2.68484 48.216 8.55209 54 16.0485 54C23.7417 54 30.0006 47.7995 30.0006 40.177C30.0006 32.8228 24.1756 26.7915 16.8568 26.3758ZM16.0485 52.052C9.61196 52.052 4.56827 47.0281 4.0576 40.1057V40.1066C2.93639 24.8398 12.0935 14.9278 14.86 12.3036C15.1307 12.5671 15.4399 12.8791 15.8949 13.3385C16.4411 13.8901 17.189 14.6444 18.3198 15.7686C13.9894 22.3801 14.8063 27.0892 15.1644 27.7635C15.3343 28.0841 15.6837 28.301 16.0485 28.301C22.6579 28.301 28.0346 33.6283 28.0346 40.177C28.0346 46.7247 22.6579 52.052 16.0485 52.052Z" fill="#FEFEFE"/>
</svg>
