<svg width="80" height="80" viewBox="0 0 80 80" fill="none" xmlns="http://www.w3.org/2000/svg">
<path d="M16.5 13C23.7935 13 30.7882 15.8446 35.9454 20.9081C41.1027 25.9716 44 32.8392 44 40C44 47.1608 41.1027 54.0284 35.9454 59.0919C30.7882 64.1554 23.7935 67 16.5 67L16.5 40L16.5 13Z" fill="#FF2727"/>
<path d="M62.5 67C55.2065 67 48.2118 64.1554 43.0546 59.0919C37.8973 54.0284 35 47.1608 35 40C35 32.8392 37.8973 25.9716 43.0546 20.9081C48.2118 15.8446 55.2065 13 62.5 13L62.5 40L62.5 67Z" fill="#10323E"/>
</svg>
