<svg width="80" height="80" viewBox="0 0 80 80" fill="none" xmlns="http://www.w3.org/2000/svg">
<path d="M40.0001 0C47.0946 0 54.1488 2.81371 59.1653 7.82216C64.1819 12.8306 67.0001 19.6235 67.0001 26.7065C67.0001 33.7895 64.1819 40.5824 59.1654 45.5909C54.1488 50.5993 47.0946 54 40.0001 54L40.0001 27L40.0001 0Z" fill="#FF2727"/>
<path d="M39.9999 80C32.8648 80 25.925 77.1232 20.8797 72.1713C15.8344 67.2193 13 60.5031 13 53.5C13 46.4969 15.8344 39.7806 20.8797 34.8287C25.925 29.8767 32.8641 27 39.9992 27L39.9996 53.5L39.9999 80Z" fill="#10323E"/>
<rect x="13" y="27" width="27" height="27" fill="#9BA0AE"/>
</svg>
